<?xml version="1.0" encoding="UTF-8" standalone="no"?>
<svg
   xmlns:dc="http://purl.org/dc/elements/1.1/"
   xmlns:cc="http://creativecommons.org/ns#"
   xmlns:rdf="http://www.w3.org/1999/02/22-rdf-syntax-ns#"
   xmlns:svg="http://www.w3.org/2000/svg"
   xmlns="http://www.w3.org/2000/svg"
   xmlns:sodipodi="http://sodipodi.sourceforge.net/DTD/sodipodi-0.dtd"
   xmlns:inkscape="http://www.inkscape.org/namespaces/inkscape"
   width="210mm"
   height="297mm"
   viewBox="0 0 210 297"
   version="1.1"
   id="svg8"
   inkscape:version="1.0.2 (e86c8708, 2021-01-15)"
   sodipodi:docname="drawing.svg">
  <defs
     id="defs2" />
  <sodipodi:namedview
     id="base"
     pagecolor="#ffffff"
     bordercolor="#666666"
     borderopacity="1.0"
     inkscape:pageopacity="0.0"
     inkscape:pageshadow="2"
     inkscape:zoom="0.53820254"
     inkscape:cx="179.31655"
     inkscape:cy="533.48302"
     inkscape:document-units="mm"
     inkscape:current-layer="layer1"
     inkscape:document-rotation="0"
     showgrid="false"
     inkscape:object-paths="false"
     inkscape:window-width="1252"
     inkscape:window-height="847"
     inkscape:window-x="106"
     inkscape:window-y="74"
     inkscape:window-maximized="0" />
  <metadata
     id="metadata5">
    <rdf:RDF>
      <cc:Work
         rdf:about="">
        <dc:format>image/svg+xml</dc:format>
        <dc:type
           rdf:resource="http://purl.org/dc/dcmitype/StillImage" />
        <dc:title></dc:title>
      </cc:Work>
    </rdf:RDF>
  </metadata>
  <g
     inkscape:label="Layer 1"
     inkscape:groupmode="layer"
     id="layer1"
     style="opacity:1">
    <path
       style="fill:#666666;stroke-width:0.264583"
       id="path26"
       d="m 33.035901,116.86895 c 0.569672,-2.3507 0.982289,-4.74511 1.709015,-7.0521 4.260485,-13.524901 10.206458,-26.528187 16.202321,-39.349165 5.859055,-12.528447 3.397737,-8.272584 9.633913,-17.342609 -0.941522,1.221271 -2.695538,2.127157 -2.824567,3.663817 -0.185113,2.204577 1.538216,4.16645 1.985145,6.33317 0.782915,3.795596 1.274035,7.64976 1.693799,11.502459 1.391301,12.76972 1.526601,25.626568 1.695394,38.453478 -0.03686,7.30489 -0.0021,9.56874 -0.188409,16.4353 -0.03462,1.27573 -1.425411,3.9489 -0.155202,3.82544 8.091016,-0.78643 7.40864,-6.26888 9.382037,-11.6659 1.622928,-4.43851 3.487857,-8.78476 5.231784,-13.17714 2.832862,-5.53485 5.665724,-11.06971 8.498586,-16.604563 0,0 -2.047404,0.91952 -2.047404,0.91952 v 0 c -3.175863,5.697654 -6.351725,11.395303 -9.527588,17.092963 -2.300941,4.65513 -4.615738,9.30344 -6.902823,13.96539 -1.251445,2.55091 -4.16488,4.8679 -3.712678,7.67304 0.259993,1.61282 3.664357,0.0595 4.764524,-1.14813 0.773678,-0.84926 -0.517327,-2.24497 -0.632032,-3.38806 -0.529682,-5.27871 -0.318838,-10.61603 -0.888521,-15.89082 C 66.421219,100.71364 66.2341,97.325816 65.745621,86.558921 65.706063,85.686994 64.723631,62.359055 64.5498,60.530575 c -0.241044,-2.535491 0.930275,-6.26346 -1.277565,-7.533211 -2.333871,-1.342234 -5.150614,1.570143 -7.72592,2.355215 -0.991865,1.894869 -2.065412,3.749175 -2.9756,5.684602 -1.689795,3.593198 -3.215367,7.261357 -4.820531,10.893152 -1.924298,4.353862 -3.843607,8.70993 -5.767858,13.063813 -2.085782,4.719365 -4.169317,9.43973 -6.262243,14.15593 -1.910882,4.305984 -3.882019,8.585474 -5.749171,12.910594 -1.113194,2.57864 -2.12726,5.19895 -3.190891,7.79842 0,0 6.25588,-2.99014 6.25588,-2.99014 z" />
    <path
       style="fill:#666666;stroke-width:0.264583"
       id="path28"
       d="m 74.961828,76.745385 c 1.111613,1.788615 2.201823,3.59071 3.334833,5.365847 2.605375,4.081944 5.308094,8.101717 7.879971,12.204851 3.303275,5.269995 6.502956,10.604227 9.744252,15.912567 11.225386,18.38404 8.555446,14.00935 19.182526,31.73796 0,0 2.28492,-1.32847 2.28492,-1.32847 v 0 c -3.16131,-4.95402 -6.40683,-9.8553 -9.48393,-14.86206 C 97.619972,109.04235 87.763201,91.877204 80.931215,73.398932 c 0,0 -5.969387,3.346453 -5.969387,3.346453 z" />
    <path
       style="fill:#666666;stroke-width:0.264583"
       id="path30"
       d="m 74.413252,205.55199 c -0.245443,-13.34763 2.115127,-26.73711 5.944574,-39.49649 1.613217,-5.37509 3.606823,-10.6286 5.410234,-15.9429 2.465618,-5.78152 4.71991,-11.65779 7.39685,-17.34455 5.39976,-11.47097 11.13176,-21.49221 17.82236,-32.21433 4.97008,-7.964858 10.2882,-15.769595 16.07843,-23.167041 2.22241,-2.839286 4.6349,-5.524526 6.95234,-8.286789 4.75051,-5.015521 6.33986,-6.972864 11.34345,-11.30064 3.43411,-2.970266 4.89796,-3.904893 8.58539,-6.246532 0.62359,-0.395999 -2.57315,1.206185 -1.83532,1.242052 1.0094,0.04907 1.85731,-0.797227 2.78596,-1.19584 2.00936,-0.591246 4.47629,-1.68769 6.6504,-1.514785 -0.0739,-0.01781 -0.15675,-0.09295 -0.22168,-0.05344 -0.64843,0.394467 -2.29836,3.896688 -2.47509,4.248838 -2.53582,5.052965 -2.46154,5.148778 -4.96494,10.963796 -6.2119,15.815066 -10.21121,32.38704 -13.78747,48.964221 -0.30579,1.47003 -0.61358,2.93965 -0.91737,4.41009 -0.21289,1.0304 -0.40928,2.06427 -0.63267,3.09245 -0.13348,0.61435 -0.30485,1.22007 -0.43783,1.83453 -0.0466,0.21554 -0.28607,0.77332 -0.10069,0.65387 9.70802,-6.25529 7.40579,-4.48336 13.52806,-12.21321 5.69434,-6.82057 11.69646,-13.376276 18.04491,-19.592899 3.72559,-3.648221 5.46055,-5.146924 9.17316,-8.486537 0,0 -5.49845,2.252305 -5.49845,2.252305 v 0 c -3.32328,3.163406 -5.10933,4.820317 -8.46429,8.224467 -6.24734,6.338924 -12.16629,12.981904 -18.06441,19.643854 -4.89033,5.53139 -8.94804,6.52869 -2.28461,6.86201 0.13342,0.007 -0.14011,-0.24166 -0.14067,-0.37523 -0.002,-0.56438 0.0777,-1.12624 0.13207,-1.68799 0.29328,-3.02773 0.43754,-3.85333 0.87416,-7.15178 2.6777,-16.667323 6.47639,-33.253748 13.51427,-48.682059 2.72994,-5.512925 3.06725,-6.524556 5.97545,-11.351694 0.58835,-0.976561 1.24471,-1.910509 1.87163,-2.862768 0.19196,-0.291571 1.11636,-1.465461 1.14913,-2.056588 0.0133,-0.23959 -0.14845,-0.456379 -0.22268,-0.684572 -0.14651,-0.08276 -0.27477,-0.214117 -0.43953,-0.248277 -0.21759,-0.04511 -1.46612,0.15349 -1.51529,0.162367 -1.92129,0.346847 -3.80155,0.895683 -5.62226,1.598988 -0.99521,0.428683 -2.02808,0.778783 -2.98562,1.286052 -3.86848,2.049373 -8.86509,4.714433 -12.5753,7.552934 -5.46925,4.184269 -10.14121,9.286396 -14.61347,14.489125 -2.14529,2.698009 -4.38515,5.323456 -6.43587,8.09403 -5.46866,7.388315 -10.14302,14.753878 -14.86436,22.667872 -9.522433,15.96169 -18.251373,32.4169 -25.283244,49.64273 -2.08059,5.45393 -4.334899,10.84472 -6.241769,16.36179 -4.597331,13.30125 -7.391167,27.12259 -8.868852,41.09866 0,0 6.260907,-3.19009 6.260907,-3.19009 z" />
  </g>
</svg>
